<mxfile host="app.diagrams.net" modified="2021-09-12T15:26:00.652Z" agent="5.0 (Windows NT 10.0; Win64; x64) AppleWebKit/537.36 (KHTML, like Gecko) Chrome/93.0.4577.63 Safari/537.36" etag="O3u9lPTK9nh-GPZKvmTq" version="15.1.4" type="github" pages="2">
  <diagram id="a45cf8ec-cd66-6f27-3ac3-be6e809c9e4a" name="Class">
    <mxGraphModel dx="780" dy="1122" grid="1" gridSize="10" guides="1" tooltips="1" connect="1" arrows="1" fold="1" page="1" pageScale="1" pageWidth="1169" pageHeight="827" background="#ffffff" math="0" shadow="0">
      <root>
        <mxCell id="0" />
        <mxCell id="1" parent="0" />
        <mxCell id="JvuJxeVBMpPZUyGvVf-T-209" value="" style="rounded=1;whiteSpace=wrap;html=1;fillColor=#d5e8d4;strokeColor=#82b366;" parent="1" vertex="1">
          <mxGeometry x="510" y="465" width="550" height="330" as="geometry" />
        </mxCell>
        <mxCell id="JvuJxeVBMpPZUyGvVf-T-210" value="esxi server&lt;br&gt;ipmi:super-ipmi9.cyber.local&lt;br&gt;esxi:super9.cyber.local" style="pointerEvents=1;shadow=0;dashed=0;html=1;strokeColor=none;fillColor=#4495D1;labelPosition=center;verticalLabelPosition=bottom;verticalAlign=top;align=center;outlineConnect=0;shape=mxgraph.veeam.server;" parent="1" vertex="1">
          <mxGeometry x="550" y="490" width="69.6" height="22.8" as="geometry" />
        </mxCell>
        <mxCell id="JvuJxeVBMpPZUyGvVf-T-211" value="super-ipmix" style="endArrow=none;html=1;entryX=0.9;entryY=1;entryDx=0;entryDy=0;entryPerimeter=0;edgeStyle=elbowEdgeStyle;" parent="1" source="JvuJxeVBMpPZUyGvVf-T-210" edge="1">
          <mxGeometry width="50" height="50" relative="1" as="geometry">
            <mxPoint x="180" y="540" as="sourcePoint" />
            <mxPoint x="302" y="390" as="targetPoint" />
          </mxGeometry>
        </mxCell>
        <mxCell id="JvuJxeVBMpPZUyGvVf-T-212" value="480-esxix" style="endArrow=none;html=1;edgeStyle=elbowEdgeStyle;" parent="1" source="JvuJxeVBMpPZUyGvVf-T-210" edge="1">
          <mxGeometry x="-0.623" width="50" height="50" relative="1" as="geometry">
            <mxPoint x="535" y="370" as="sourcePoint" />
            <mxPoint x="310" y="380" as="targetPoint" />
            <Array as="points">
              <mxPoint x="580" y="440" />
            </Array>
            <mxPoint as="offset" />
          </mxGeometry>
        </mxCell>
        <mxCell id="JvuJxeVBMpPZUyGvVf-T-213" value="Virtual WAN 10.0.17.0/24" style="html=1;outlineConnect=0;fillColor=#CCCCCC;strokeColor=#6881B3;gradientColor=none;gradientDirection=north;strokeWidth=2;shape=mxgraph.networks.bus;gradientColor=none;gradientDirection=north;fontColor=#ffffff;perimeter=backbonePerimeter;backboneSize=20;" parent="1" vertex="1">
          <mxGeometry x="550" y="576" width="460" height="20" as="geometry" />
        </mxCell>
        <mxCell id="JvuJxeVBMpPZUyGvVf-T-214" value="Blue 1 Virtual LAN 10.0.5.0/24" style="html=1;outlineConnect=0;fillColor=#CCCCCC;strokeColor=#6881B3;gradientColor=none;gradientDirection=north;strokeWidth=2;shape=mxgraph.networks.bus;gradientColor=none;gradientDirection=north;fontColor=#ffffff;perimeter=backbonePerimeter;backboneSize=20;" parent="1" vertex="1">
          <mxGeometry x="810" y="690" width="200" height="20" as="geometry" />
        </mxCell>
        <mxCell id="JvuJxeVBMpPZUyGvVf-T-215" value="192.168.3.49&lt;br&gt;480-fw9&lt;br&gt;10.0.17.2" style="image;html=1;image=img/lib/clip_art/networking/Firewall_02_128x128.png;labelBackgroundColor=none;" parent="1" vertex="1">
          <mxGeometry x="750" y="481.4" width="40" height="40" as="geometry" />
        </mxCell>
        <mxCell id="JvuJxeVBMpPZUyGvVf-T-216" value="480-fwx" style="endArrow=none;html=1;edgeStyle=elbowEdgeStyle;" parent="1" source="JvuJxeVBMpPZUyGvVf-T-215" edge="1">
          <mxGeometry x="-0.2667" width="50" height="50" relative="1" as="geometry">
            <mxPoint x="770" y="490" as="sourcePoint" />
            <mxPoint x="770" y="279" as="targetPoint" />
            <Array as="points">
              <mxPoint x="770" y="440" />
              <mxPoint x="760" y="340" />
            </Array>
            <mxPoint as="offset" />
          </mxGeometry>
        </mxCell>
        <mxCell id="JvuJxeVBMpPZUyGvVf-T-217" value="" style="shadow=0;dashed=0;html=1;strokeColor=none;fillColor=#4495D1;labelPosition=center;verticalLabelPosition=bottom;verticalAlign=top;align=center;outlineConnect=0;shape=mxgraph.veeam.vm_linux;" parent="1" vertex="1">
          <mxGeometry x="942.8" y="720" width="57.2" height="55.2" as="geometry" />
        </mxCell>
        <mxCell id="JvuJxeVBMpPZUyGvVf-T-218" value="" style="pointerEvents=1;shadow=0;dashed=0;html=1;strokeColor=none;fillColor=#005F4B;labelPosition=center;verticalLabelPosition=bottom;verticalAlign=top;align=center;outlineConnect=0;shape=mxgraph.veeam2.windows_vm;" parent="1" vertex="1">
          <mxGeometry x="880" y="720" width="49" height="52" as="geometry" />
        </mxCell>
        <mxCell id="JvuJxeVBMpPZUyGvVf-T-219" value="Individual Environment&lt;br&gt;sjohnson.local" style="text;html=1;strokeColor=none;fillColor=none;align=center;verticalAlign=middle;whiteSpace=wrap;rounded=0;fontStyle=1" parent="1" vertex="1">
          <mxGeometry x="880" y="492" width="120" height="20" as="geometry" />
        </mxCell>
        <mxCell id="Z-MeEPg_xHYuGSh-V4FI-1" value="fw-blue1&lt;br&gt;10.0.17.200" style="image;html=1;image=img/lib/clip_art/networking/Firewall_02_128x128.png;labelBackgroundColor=none;" parent="1" vertex="1">
          <mxGeometry x="893" y="610" width="40" height="40" as="geometry" />
        </mxCell>
        <mxCell id="sJKOIP8hare5MeFGJSXo-1" value="" style="edgeStyle=orthogonalEdgeStyle;rounded=0;orthogonalLoop=1;jettySize=auto;html=1;" parent="1" source="0ko4HIsVbi1JmlB0U_B0-1" target="wnnUe5ZxbLAXSOxdO9sA-1" edge="1">
          <mxGeometry relative="1" as="geometry" />
        </mxCell>
        <mxCell id="sQxBO_ZZON8zaaDXolQX-1" value="" style="edgeStyle=orthogonalEdgeStyle;rounded=0;orthogonalLoop=1;jettySize=auto;html=1;" parent="1" source="0ko4HIsVbi1JmlB0U_B0-1" target="wnnUe5ZxbLAXSOxdO9sA-1" edge="1">
          <mxGeometry relative="1" as="geometry" />
        </mxCell>
        <mxCell id="0ko4HIsVbi1JmlB0U_B0-1" value="vcenter&lt;br&gt;10.0.17.3" style="pointerEvents=1;shadow=0;dashed=0;html=1;strokeColor=none;fillColor=#005F4B;labelPosition=center;verticalLabelPosition=bottom;verticalAlign=top;align=center;outlineConnect=0;shape=mxgraph.veeam2.vcenter_server;" parent="1" vertex="1">
          <mxGeometry x="617.6" y="605" width="40" height="50" as="geometry" />
        </mxCell>
        <mxCell id="0ko4HIsVbi1JmlB0U_B0-2" value="dc1&lt;br&gt;10.0.17.4" style="aspect=fixed;html=1;points=[];align=center;image;fontSize=12;image=img/lib/mscae/Active_Directory.svg;labelBackgroundColor=none;" parent="1" vertex="1">
          <mxGeometry x="543" y="605" width="50" height="50" as="geometry" />
        </mxCell>
        <mxCell id="0ko4HIsVbi1JmlB0U_B0-3" value="xubuntu-wan&lt;br&gt;10.0.17.100" style="shape=image;html=1;verticalAlign=top;verticalLabelPosition=bottom;labelBackgroundColor=none;imageAspect=0;aspect=fixed;image=https://cdn3.iconfinder.com/data/icons/humano2/128x128/places/start-here-xubuntu.png" parent="1" vertex="1">
          <mxGeometry x="800" y="610" width="40" height="40" as="geometry" />
        </mxCell>
        <mxCell id="wnnUe5ZxbLAXSOxdO9sA-1" value="fogx&#xa;10.0.17.5" style="shape=image;verticalLabelPosition=bottom;labelBackgroundColor=none;verticalAlign=top;aspect=fixed;imageAspect=0;image=data:image/png,iVBORw0KGgoAAAANSUhEUgAAAQAAAAEACAYAAABccqhmAAAj9klEQVR4nOzdCZhU1Znw8f+p6pW1oRto9mZVacQIxiWCwaiTxCVfgtMNxiTjZAyTb+aZmfglKjRmpqPQDRgnk8lMYnA0xnGhKUWjJq4oCigoytI0CM2+NkuzQy/VVed76jYgQjdd1XWqTt2q9/c8hF6qzn0ldd57tntOGsLdiu7JhqxBoAah6AU6D+gBnlzQuUAuitDfGc7rNd1OvTP0fcdTX58AGp2vFIdOva4BqEVTizr1R+sDoA6ArkGzFeq34PtVnZX/bmGEsh2ACMPkyekcybuIIKNQjETpwQRVAYoCCFV6q/YCWyCUEEJ/q0qUrqTrgfXMmeO3HJtogySARBO6o3uzriDIVSjPKLS+FBhx5g7uHqEWxVqUqkQHV+NhGYH65dJiSCySAGy7o6QXAXUl6DGgrwU1FsiyHVaMNIFaBcElKPUJwcBCfLO22w4qlUkCiLfxpWn08F+N0reCuhH06JT+/0GxGXgbrV7l2NE3ee03DbZDSiWp+8GLpwn39cPrvQ2lvgl87azBN/FFx9EsQKnX0byCb8Yu2wElO0kAsXJHaR7BxpvR+vugQpXeYzsklwkCH6Lx4W3yMXf2btsBJSNJACaFKn2gcSJQDIyVSm9MEK3fB+bRxDxeLK+1HVCykARgQtGUMXg8k9F8H8i2HU6SawBeBs8c5k1f4KxYEO0mCaC9iu7NR6X/DXA3MNR2OClqI/AMHvU4c2fssB2MG0kCiNSkKZcTVD8FFWrmp9sORzj8QAWaR/CVrbQdjJtIAghX0bRQn/5+lL5F/t0S2hJQs5g341XpHrRNPsgXMr40jV4N30ern51ajSfcYw3oX7Iv8xkWljbZDiZRSQJoSWmph3X+29F6OjDcdjgiKlvRqhw2PI7PF7AdTKKRBPBFiuJptwIPgb7MdjDCqHUoZnJJxtOUlgZtB5MoJAGcVjTlG+CZhWKU7VBETK1EBe+nYuabtgNJBJIAbn9gGN7gjFAKsB2KiCf9Npp/wVe+1nYkNqVuAvh2aQ4ZjVOAnwCZtsMRVvhB/w4d/Fd8s47YDsaGVEwAiuKpd4MqA/JsByMSgd6HYgoV5U+m2tRhaiWAiQ8MIRj8PYobbIciEpBmEXh+hG/6etuhxEtqJADnGfzGf0QxQx7FFW2oA2ajM8rwlTbaDibWkj8BFE0Zg/I+LtN6IiJarcCj76ai7FPbocRS8iaA0lIPVY3/hGK2C/fTE4mhCZiBrn4oWRcRJWcCKLp/AMr7v8B1tkMRSeFDAsHv8cLMzbYDMS35NqyYOK0I5V0plV8YdA1ezwqKS75nOxDTkqcF8P2fdaQh/feg7rQdikhm6o/Upf8Dr5SetB2JCcmRAIqmDEWp+aAutR2KSAGa1Xg8E6iYvsl2KNFyfxegeOrNKM9HUvlF3ChGoYOfUjz127ZDiZbXdgBRUBSX3A/qcaCD7WBEyskENZHCcdkU3fAOCxe6cgWhO7sATn8/4zngNtuhCIHmT2Q13sn//vKE7VAi5b4EMKGkN2nqleajtIRIFGoVTf5bmT97p+1IIuGuBHD7zwtJC/wZzUDboQjRgl2owC1UzFplO5BwuWcQcFLJDXgDS6TyiwTWF+1d1Ly5jDu4YxCwqOS7wPMy2CdcIBOlihlxXTVrF1XZDqYtiZ8Aiqf+CKWeANJshyJEmLwovsOIsbtYu3iF7WAuJLETwMRp/wD81lVdFSGaeVDqNkZed4SqRUttB9OaxE0Azhw/v3LdQKUQnwt9dr9B4TioWvSe7WBakpgJoHjaQ8CDtsMQwpDxjLzOQ9WihbYDOVfiJYCikmkoSm2HIYRhX6VwXCNVixbbDuRsiZUAJpb8E/Cw7TCEiJEbKBx3nKpFH9oO5LTESQBFJXcBj0qfXyS5mygcu5uqxQmx1VhiJICiku+ieFJG+0UKUKBuZsR16xNhnYD9u+2kB8YTDL4h+/aJFOMHz83Mm/62zSDsJoCiqSNQagmQYzUOIew4ivaOxfdQpa0A7CWACSW9SedDWdsvUtxWvFzNc2V7bVzcTp/7ttIOeHlRKr8QFBBQf3b2uLAg/gmgtNRDduNcFFfF/dpCJCQ9hoaMp526EWfxTwBrG0tlJx8hzvNt1jZOi/dF4zsGMHHqrWj1J5nuEy3JSk+jd7fO5HbuQE52Fl07ZtG1QxbdOmY5v0/zeuiUmUm938/mvYdYuHYLew4fsx22SUHQtzGv/C/xumD8EsDtDwzDG/xIRvxTV8fMDAb36s7gnt0Y1DOHwT27U9CjG327daF3t07kdMyOqDytNcs27eSp91Yyb2klJxv8MYs9jg6hPF+O15bj8UkAzZt4LgVGxuV6whqvx8OAvK4Mzc9leO9chufnMrR3HsPyc+nXvUvMrrv/6El+/doH/NcbS2lscvkxfprV1GdcE4/DR+KTAIqnPi0n9iSXdK+XofndKezfkxF9e3JJ3x4Mz89jcK9uZKbb27tl/e4D/N3vX+TTLbutxWCG+gPzZvww5leJ9QVOnaf2vzG/jogJj1IU9MihsH8vp5IX9muu8MP75DpJIBGFugJ/++h8XvnkM9uhREdxBxVlc2N7iViaNK0/Qb0K6BbT6wgjQs33i/rkccWgvowe3JvRBX0Y0a8nHTLTbYcWsQZ/E7fNfprF67fZDiUah2lSX2L+jJj9R8QuATjn8zcsQKnxMbuGaLfQnT3UhA9V8tGD+zJ6UG8uG5jvDNQliwVrNnPbbJc3PjWLoPp6fL6YDGzErrO2tqFEKn9iSPN6nEG4UGW/uG8PRvTrwdVD+9OtU2Sj7m5zcZ882yFETzEOPfReYGZsio+FoiljUJ4PAfe1HWOkX/cuXDWsP50yM9h+4DCb9h1kZ+1RgtrckXKhJvzAvK4M653HRX1ynUG5UQPyGTmglzPHnmo27zvEyJ/9p+0wTPDjCV7F3JnGdxg2/6kYX5qGapwjlb9ZXueOzJh0I5O+cul5g2aNTQE27T3ojFxX19SysaaWLfsOsWX/IXYfOubMc58tdCfP6ZBNz64dnYTSO6ezM68eurtf1Nv+CHyi2VF7xHYIpqQT9P6ByZO/zJw5Rhc7mP+09Gy4D9Ro4+W60I0jh/D4jyfQo0vL55lkpHmdkfXQn9YcPVnvtBI6Z2c6d3gRvk8277IdgkH6Mg7l/cT0lnlmP1ETpw4H9YDRMl1qwpUjeP7/3dFq5Q9Xlw5Zzgo5qfyRW1i1xXYIZil+QdGUoSaLNPmpUmh+ByT3yFIYvnpJAU/8eIJzhxd2HDx+kvfWbbUdhmnZoB4zOXZnLgEUT70b1NeMledSA/NyqPjJJKn8lj3x7qf4Ay5fEtwSpcYzcepdpoozkwC+XZoDqsxIWS7367tuoUt2pu0wUtrhE3X85+sJexpX9DQzKbq/q4mizCSAjIZ/A5Jg0jU6Vwzpy1+NMtpFExHSWvPjx1/mwLETtkOJIdUTj9fI3gHRJ4Dbp14M6h9NBON2k64ZZTuElPevvgW8vNzlzwCEQ/MvzYPu0Yk+AXjUv8ucf7O+3TvbDiFlBYJB7n3mdR55dYntUOIlA62inhKMLgEUP3Ajim9GG0SyOFbfYDuElLTv6Am+Nftp/vuNZbZDibdvUVzy9WgKiGYhkAL9y2gunmw+WL+D7439ku0wrDp0vI6aw8fZffgYNUeOse/wCQ6drOPg8ToOnajjyIm6M69t8Ac56ffTvWMWeV060qtrR/p3z6FPt8706d6Z/rk5zs9aWwOx7cBhnluymt+9tczZECRFlQFvOp2Cdmh/AiguKXJWJ4kzFq9PunnnLzhW1+AsXd5Yc5Ct+w85FXzP4ePUHDrOnsNHnYpf728yft2uoQTRqYOzKCqkvtHP1v2HqWtMii3AojWaomnfxjfjxfa8uX0LCoqKvKhhlcAl7Xp/Eqv+j3voG8Otr2ItVIE3n6rkG/fWNv9dU+s8q7D3yHHb4YmWaF1FYeYoSkuDkb61nS2Aod+Vyt+ylz5exz9+PfGPPDh4/CRrd+1n/e79rHP+bn4gyfQTiiIOlCqkyl8EVET81ogv1nz3rwIuivi9KeCaYQNY8PO/tR3GGYFgkOqag6zauoeV2/awatse1uzYn+Tz5ClpA/syCllYGlEfLPIWgGfoD9BS+VuzbOMO51HePt3sTAmGKvbS6p0sWb+NjzbuYvX2Gk40NFqJRcTVcHo2TgKejuRNkSYAhVY/i/A9KSXUfH537WbuvDY+46NHT9Y7W1+9VbmJDzZsY8Oe2rhcVyQifR/wTCQzApF1AYpKbkHxantCSyV3fXU0v/272J1+tqP2CM8vreKNVRv4sHpncj70ItpHBb9Oxcw3w315ZC0AxU/bE1OqicV0YIO/iWeXrOLZxZV8UL39vN2ChHAEvT89tS4gLOG3ACbefxnauyLu5wm61IHHSoxtp71u135u//dnnblvIdqkuRxf2cpwXhrBUmDvfVL5w1djcM78vmdel8ovwqe4J9yXhpcAiu7NR1MUTUypxusxkyura2p5J9m2thKxNonvlPYM54XhJQCV/rfyxF9kukV40m1rnnp/hfT3RaQySGv8m3BeGE4CCN3KYn5IYTLp1bWTsV2BXvxorZFyRIpR3B1Ol73tBDCp5GuAbHMTgaG9co2Us7HmoHO4hRDtMJziaePaelHbCUDrH5mKKFUM620mAbxVudFIOSJVtV13L5wAvjM1F62+bTKkVDCkV3cj5UgCEFH6a7475YInc184AaR57gBki9sIDc2PPgE0+JtY/Jmrj7YW9mXh915w9u7CCUBpmfprh2H50XcBFq/fzvF6eYhHREsXX+i3rSeACSW9gWtjEVIy8yjFoJ4XbHWF5W1p/gsTFOO5o6RXa79uPQF4KXb+V0Skb/cuZGdEv2Ri4drk3l5MxI2XoLq9tV9eqAtwwaaDaNkwA/3/Ew2NVO3cayQeIdCtdwNaTgAT7uuH4upYxpSshuZHf0DS8s27aQpEvL2bEK0Zx6T7+rT0i5YTQHr6t4wfHZ4ihhoYAFxWvcNILEKc4iGQfmvLv2iJ1t+IdUTJaqiBNQAfbdppJBYhzlAt1+nzE0BRaQZwfTxiSkbRtgC01s5efkIYduOpuv0F5ycA1XQd0CleUSWTNK+HgT2iO7V5875DsmOviIXOeJu+cu4PW0gAATnrr50G9ehGuje6mdNlG6X/L2IkqM+r2+cnAK2k/99OQwxMAS6T5r+ImWAbCaB5xdCIeIaUTEwsAZYWgIgdNfLcnYK+mAACamy8Q0om0SYAfyDAZ7v2G4tHiHMoMvzXnP2Dc7oAWtb+R2FY7+gWAW3YXUtjk+zxL2Lpi3X83DEASQBRGB7lRiBrdsjyXxFjQVpJAEX3ZANfshFTMuiUlUF+1+hmT9fu2mcsHiFapBjDXaVZp7/9PAGoDl92dhMV7RJq/isV3VbgVTslAYiYy+Rkw5jT35zVBQheaSmgpBBt8z+kaockABEH2nPV6S/PSgAqPsfZJqlodwI+VtfA9tojxuIRolWKUae//DwB6M9/KCIXbQsg1P+XA0BEfOhLT3/VnAAmT05HcbHNkNwu6gQg/X8RP4WML3VOBm9OAId6XSwDgO2nlGJIlF0AGQAUcZRJj4bhnEkAnqA0/6PQp1tnZxowGjIAKOLL43QDmhOA1oW2w3Gz4QaeAfhs9wEjsQgRFsVIziQApQfbjsfNol0CXNfoZ99R2QNAxNGpOn+qBaAG2Y7HzYZHmQC2HzgiMwAivoIU8Pk0oC6wHI6rRTsDsEPm/0W8KZybvofv/6wjqB6243GzaE8D3n7gsLFYhAhTPneVZnk4mV3g5APRLlnpafTr3iWqMnYclBaAiDvFiaaBHrxNA21H4mZD8rvj9UR3hMKOA0eNxSNE+JoGeVCqxRNDRHhMbANWc1gSgLDAo3p7COroz7JKYSZOAtpz+LiRWISISFDlpaGI/hOcwgYbOAp835HkXgPgUYqh+d35UkFv8nM60b1jB3I7Z6NQHK1r4PDJelZvr+GTzbvYf/Sk7XBThyI3DTy5IHPQ7TU4ymcA/IEAB0/UGYsnEaR5PVw5pB83XTqUr1zUn8sG9qZLdmab72sKBHljVTUPzl9I5faauMSa4kIJQEsLIApDomwBhO7+ybAIqG/3Lk6Fv+nSIXytcDBdO2ZFXEYocdwy+iJuvHQI9zz1Gk++92lMYhVn5KahyZNJwPbJzkh3HgSKxr4j7uz/p3u9XHtRf266dBh/NWoohf17Gis7Mz2N//rhrRw6Uceflq8zVq44h8YZA8ixHYdbDerZLep9AI/UNRqLJ9ZyOmbztcJB3Hz5cG750kXtusuHy6MU//6Db/JW5UZONvhjdp2UpugWSgBZMgTQPiYGAI/XNxiJJVaG9OruVPibL7+Ia4cPcJrp8dI7pzN3jv0Sjy34OG7XTCmKzFAXQDYCaadQ5YjWsQRLABlpXq4Z1p+bRg11Kv3FfezOEv9g3GWSAGJFhxIAOkNWArePiQRwvM5uAgg1tS/qk8fYiwucAbzxIwZFvbmJSWMG92VgXg7b5HmJGFAZaaDanp8RLYp2ChCnBRDfMYBQs3rM4D6MGdSXK4f1Y8ygPmFN0dn0zcuH8ehb0gowT4daANIFaK8hvaIfAzjZGLsBrtxOHRg9uA9XDO7D6II+ztehBOA2/bvLOHWMSAJor1BfOdqnAHHGYcx0v7p0yGJ0QT6jB/Vl9KA+zl0+1HR2O6018z9eazuMZOUkANEOBT1yon4KEGc+PfIystLTuNy5o/d2mvKhCj8sv3vUU5KJqPyl950lwiI2Qgkg1AnNth2I2ww2MADIqQU1bRmQ15Wrh/XnyiGhP325rCA/rPe53Z8/XU/ZS+/ZDiOZNUgCaCcTMwCcWv56rqH53bm+cAjXjxjkVPz8nOhOHXajBWs284PfvkAwCZZJJ7BQAtANMg0YuSE9zTxCEbqT53bqwPUjBzlr6K8vHJwUffdohCp/8X/MdXZLFrGkQglAuWctagIxMQMQ8r1xlzH5xiuc+XgByzbuYNKvK6Tyx4VuTEPRKEuBI2dqDCCRFt3YVvFBJf/y1F840SD3pLhQoS6Apt52HG7j9XicgTkRvVAff0HlJn7zxlLertxkO5zUopsHAQ/ZjsNt+nbvnBKj8LFyssHPBxu2807VJl75ZD2b9h60HVKqOhhqARyQMcDIFKT4IF2k/IEAK7ft4d01W3i3ajNLN+6kwd9kOyyhOZCGotZ2HG4zqKeZ/n8yOlbXwMaaWtbt3s+KrXtYsWWP87cM6iUgpWrTQB2QPQEjM7CHtABCfffNew85e/dV7drnHG8e+nrL/sNJscVZatAH0iBYK+sAIlPQw8wUoFsEgkE27Kll3a79zp8VW3eztHonB4/LDr4uV5uGplbqf2QKeiZvC6ApEKS6ptap5Keb8Ku21cjUXDLSoQSg2GM7DrcZlCQtgJYqu/TXU0mwJtQC2CotgPBlZ6TTs0tH22FE7HQz/uzKvnLbHtlwM6WlbUmD+i2QreWE4PAMzOvqisdud9Qe4eNNu/ho0w6Wb9otzXhxLk3HtG1p+H5VR/HU/aDMbeyexAoM7ARs2vH6Rip31LBiS+jPbhav3yZ76Im27OHJ0vrmDUG02oJCEkAYChJgCnDvkeO8t3Yr763b6jw8s373AaeJL0TYQl3/UxuCgEdvRaurbMfkBgV58V8EdKyugY837+bdqk28U7WFlVv3yFy7iI7SWziTALRnkywGCk88WgCNTQHe/2wrb66q5r1126jasVc2xhCGqc2cSQCwxm4w7hGrBFDvb3K2wPrTJ+t4c9VG59hsIWJGqUrOJAClK6UBEB7TCWDNjr38/u3lPP/RGo6ckCezRZw0Bc9KAHszPqNnY+iWk9gnRFjWrVO2s/22CfuOnmDKM28wb+kaad6LeKvHs7E69EXzjpQLS5sAOYe5DaaeAdBac8usp5j7YaVUfmGBqsLnC3AmATRbbS8gdxhoaBegD6q3O0/PCWHJmbp+VgLQlZaCcY3+uWYSwAvLqoyUI0S76M8H/T9PAB6W2YrHLQbmmekCvL9um5FyhGgXL0tPf/l5Ajhy/CNA5p4uwMRGoMfqGpyVe0JY0kBW+qenv/k8Abz2m1DlX2ErKjfonxv9YaCrd9TIsl1h08c8WXpmvvncc6mWxD8e9zBxYk/1HtmCUVj1hTr+xQSglSSAVnTOziSnY/RHKG7eJ7uwC5vUBRJAU7okgFaYmgHYWCMtAGGNRgeXnv2DLyaAF0v3obXMUbXA1IGdm/ZKC0DYolbjK99/9k/OP5ta8Vo8Q3ILEzMAWmu27pcEICxpoW6fnwA86vV4xeMmJroA+4+ddKYBhbAiGDyvbp+fAAIZi4Bj8YrJLUx0AWqPyT76wpqjdKv94Nwfnp8AfKWNwLvxisotBvQwsAioXu7+whLN28yZc94W0OcnAOfFWroB5xiQG30LQDb5ENaolut0ywkAz8uhHkOMQ3KNzPQ0I2cBHDspCUBYEaRJvdrSL1pOAL4Zu4Dz+gupqn9uFyNnARyVLoCw4z3ml7V4AlgrLQBnymBeLCNykwGGFgEdq5ODOYQNqtW63HoCCPp9QCBWIbnJAEOPAcsUoLAggD99fmu/bD0B+B6uQetFsYrKTUwtA67zyzl8Iu7ecVb4tqL1BNBMugGGpgBDGvxNRsoRImxaV1zo1xdOAE1OAkj5vapNjQE0+KVHJeKqjnTdavOfNhPAi+W1wEumo3Kbft3NJIDGJkkAIq58PDvzgg+ftNUFAO15zGREbtSraycj5UgXQMSVR/9Pmy9psxDf9HdRVJuKyW26ZGfSITPdSFkNTZIARNxsYG754rZe1HYCAE1QP2EmJvfJzzFz98dJANIFEPGiHyOME3/DSQCQpv4ApOQcVq+unY2VJZuBijhpxJ/5VDgvDC8BPFe2F7jgdEKy6pUT/TMAp3k94f1zCxEVxbMXmvs/W/ifSC8Ph9OkSDbdOnYwVpbXE/3zBEK0LfAf4b4y/ATwXNlq0AvaG5Jb5XQwd2BymrQARMyp16mYtSrcV0f2idT6kfaE5GZdss0cBx6S5pUEIGLMo38Z0csjKtw383VQYWeXZJDT0VwLwKskAYgY0qxmbtk7kbylHZ/I4K8if497dc2O/jCQ06QFIGJsVqTjdJF/IvXGp4H1Eb/PpTplZRgrK83rNVaWEOfYANURz9RFngB8vgBKPRTx+1wqK8PMKkCnrHRJACJGlHrAqZsRal+b9JL055z+RgrIzjBXabMNJhMhzrKGS9JfaM8b25cASkuDoFOiFZCdbrAFkJFmrCwhzgjd/Z06Gbn2j0r5ykMZZ2W73+8SmenmKm1WmiQAYZr6hIoZL7f33dEMS2s8/CyK97uCybu2dAGEcVpPjWaFbnTzUnPLFgCvRFVGgjO5ei9TBgGFSZr5+MreiqaI6D/dynMPkLTb3XoMrt+XZwGEQY0EPVOiLST6BFAxfRPo30RdToJSGEwAshBImPMIL0yPeqMeM5/I+sCDoGqMlJVgDBwIdIY8DCQM2Ut6xkwTBZn5RL48+xgqWGKkrARj4kiw09I8MgYgDND6Xp4pPWqiKHO3pIryJ0G/bay8BKG1uS0Q0qULIKL3Lr7yp00VZvITqdHeycAJg2Vad6LB3E5o8jCQiNJJlOdHJjfmMfuJ9E3fAiTVCsE9h420tIQw4V+bB93NMX9L2pfxiLM6KUl8vHGXsbICwZTbUU2Ys5J9Gb82Xaj5BLCwtAmlJyfLLsK+ZVXGygoaHE8QKaURFbjLqVuGxaZTWlH2KejSmJQdZyu27OaVTz4zUtbB4yeNlCNSjf55JPv8RSJ2o1IjMmc6I5ZJ4B8ef4XN+y54xFpYNuw5YCQekVLeR2+M2V6csUsApaVBmpp+ELrxxewacVJ7/CQTfz2XY3XRrXjeuNf1/xQivg6jA99vz0Yf4YrtvNT82TvR+u9jeo04qdqxj1tnPc3+o+1rxjf4m1i+abfxuEQS0+rH+GZtj+UlYj8x7St/HtQfY36dOPh4806uf/B/qNwe+arnP76/ggPHkmqJhIgp9Ri+GTE/jSs+a1O/fMPr+AM3A73jcr0YOnSinj++t5KmYIArh/QjPYyNPkMJ44ePviiHg4pwrUTXFbF2acyPk47f86kTpg0kTX8C5MbtmjGW17kjk2+8gh+Mu5wBeV3P+73WmueXVfHPf/wzR07UW4lRuM5BtOeKU4vqYi6+D6gXldyE4rW4tTziRCnF1UP7c/XwfnTOyqTe38T2/Yf5oHo72w8csR2ecI8gOnhL8wE88RH/HSqKS/4NSIo1AkIYVsK8svJ4XjD+T6eMyHgIzZ/ifl0hEtsLzCsz8ox/JOKfAJzti+vuAJbG/dpCJCLNcjIb/8bG8fv2NqkrmtoDpT4EhliLQQj7tuDlGp4r22vj4vYeUPeV70d5bgOiX2MrhDsdJKBvtlX5sZoAcDYUXYfW30nmXYWFaIUfD8W8UG7mSbN2sj8dt3bxNkZcV43iO9YTkhDxEUDrO5hX/mfbgdhPACFrF1VROHYbqG9ZHZcQIvY0ir9nnrl9/aKRGAkgpGrxKgrH1QI32w5FiBj6KfPKfms7iNMSJwGEVC36mMJxR4Gv2w5FCOO0noqv/Je2wzhbYiUAnCSwlJHXeYCv2g5FCIN+ga98uu0gzpV4CQAnCSykcFw9cKPtUISImtb/hq/8F7bDaEliJgCcJLCEwuv2nhoTkIFB4UYazT34ymfbDqQ1iZsAcJLAckZetwn4lkwRCpcJoPTdzCt/1HYgF5LYCQAnCVQy4roNKCcJJH68QkADWn+XeeXP2g6kLe5pWhdPvRbUS0Ce7VCEuIBDeDwTmDt9oe1AwuGeBBBSNGUoHs9f0AyzHYoQLdjirO23vLw3Eu7qV/tmbsST8RVgie1QhDjHR85TfS6q/LiyT71m4UkG3zCX9MAI4BLb4QjhbOah6/4PFQ8fth1IpNyXAEI2LPRTtWgehePqgOtd15IRyUIDsxmR8WN+O9OVZ2G6awygJcUl14OeC6qn7VBESqkF7mRe2Ru2A4mG+xNAyKRp/QnqF4Av2w5FpACtVoC6PV5bd8eSO7sA51qz6CgjrngaldEHuNx2OCKZqcfomP7XPPtgUpz0mhwtgLMVT7sd9Bygu+1QRFI5Aur/Mm/Gc7YDMSn5EgCnugSB4FMoNd52KCIpvOucdD1/9k7bgZiWnAmgmaKo5J9RzAYybAcjXKkJmMGIjAebt7NPPsmcAJpNmnI5Qc//AKNthyJcRLMcT+BuKmatsh1KLCXHIOCFrFlcQ48bnqBD4CCKsdIaEG2oA34O1T9k3pw9toOJteRvAZzt9imD8XoeBW6yHYpISO+h9GQqyjfYDiReUisBNFNMnHoXWpUDvWwHIxKBqkHp+6koe8p2JPGW/F2AllQtXsnoq35HwOsHrgbSbIckrPCD/m/SMybw3EMf2Q7GhlRsAXxR0ZShKE9Z6CvboYg40upVPOonVEzfZDsUmyQBnFb8wI0QnCWzBUlOsxw89+Ob/o7tUBKBJIBzhRKB1rNRWpYUJxOtq/B4fkHFjOdtHMOdqCQBtExRPO1WtJ6OYpTtYERU1qGYSbD6GXy+gO1gEo0kgAspKvKiht2B5l5JBK6zEs3DFGbMTdZVfCZIAghX0bSxwP0ofYv8uyW0JaBmMW/Gq9LUb5t8kCN1R8koAvwUmCSrChNGI6jn0J5H8D1UaTsYN5EE0F7fndINv7cIpf8JGGk7nBS1AXgCf8YfeLF0n+1g3EgSgAlFU8bg8UxGcyfQ0XY4Sa4BeBk8c5g3fYE086MjCcCk060CdDGK8Sm70tK8AOh3UaqChozneanUdbvvJipJALHynam5ZKhbCKpQN+Ebstw4YkHgQzQ+8Ffge7jGdkDJSBJAPEy6rw+B9FtPJYIbgc62Q0pQR9G8jdKv06ReZX5Z0j+Oa5skgHibPDmdw3ljQX0Drb8h6wvUKtCv4/G8Tpd9S5gzx5X767uVJADb7iztgr/pSgiOBX0tqLFAlu2wYqSpucIHl6A8iwkGF+Ir3287qFQmCSDR3FWaxQn/FcCVza0DfSlQCGTaDi1C9cBaFKsJqkpUcBnHji/ntd802A5MfE4SgBuML02jV9MwgnoUipEoPZggBSgGAb0tR7cHzRaU3gJqM7AG5alkb1o1C0ubLMcm2iAJwO1CLYZjDQWkqUGg89HkgspDqTy0znW+V3RD0cF5vabLqenJdKDTqVKON2+OQQDF0VOvO4nmEIpalKoF9qODtWh1AII1BNVWOmdu5cnSeov/9SJK/z8AAP//tbKJ0bIIFdYAAAAASUVORK5CYII=;" parent="1" vertex="1">
          <mxGeometry x="580" y="690" width="51" height="51" as="geometry" />
        </mxCell>
        <mxCell id="dIiL6-Yb0CZ_ebNxo6S9-1" value="&lt;b&gt;DHCP Range:&lt;/b&gt;&lt;br&gt;10.0.17.101-150" style="text;html=1;strokeColor=none;fillColor=none;align=center;verticalAlign=middle;whiteSpace=wrap;rounded=0;" vertex="1" parent="1">
          <mxGeometry x="680" y="720" width="110" height="20" as="geometry" />
        </mxCell>
      </root>
    </mxGraphModel>
  </diagram>
  <diagram id="cTv-SQFYSdDPGIvc-N8q" name="Hermione Detail">
    <mxGraphModel dx="2758" dy="786" grid="1" gridSize="10" guides="1" tooltips="1" connect="1" arrows="1" fold="1" page="1" pageScale="1" pageWidth="1169" pageHeight="827" math="0" shadow="0">
      <root>
        <mxCell id="80dREfzg9zEopbjjEfy4-0" />
        <mxCell id="80dREfzg9zEopbjjEfy4-1" parent="80dREfzg9zEopbjjEfy4-0" />
        <mxCell id="80dREfzg9zEopbjjEfy4-2" value="" style="rounded=1;whiteSpace=wrap;html=1;fillColor=#d5e8d4;strokeColor=#82b366;" parent="80dREfzg9zEopbjjEfy4-1" vertex="1">
          <mxGeometry x="-1160" y="14" width="550" height="400" as="geometry" />
        </mxCell>
        <mxCell id="80dREfzg9zEopbjjEfy4-3" value="esxi server&lt;br&gt;impi-super-ipmi1.cyber.local&lt;br&gt;esxi-super1.cyber.local" style="pointerEvents=1;shadow=0;dashed=0;html=1;strokeColor=none;fillColor=#4495D1;labelPosition=center;verticalLabelPosition=bottom;verticalAlign=top;align=center;outlineConnect=0;shape=mxgraph.veeam.server;" parent="80dREfzg9zEopbjjEfy4-1" vertex="1">
          <mxGeometry x="-1121" y="36" width="71.6" height="18.8" as="geometry" />
        </mxCell>
        <mxCell id="80dREfzg9zEopbjjEfy4-4" value="Virtual WAN 10.0.17.0/24" style="html=1;outlineConnect=0;fillColor=#CCCCCC;strokeColor=#6881B3;gradientColor=none;gradientDirection=north;strokeWidth=2;shape=mxgraph.networks.bus;gradientColor=none;gradientDirection=north;fontColor=#ffffff;perimeter=backbonePerimeter;backboneSize=20;" parent="80dREfzg9zEopbjjEfy4-1" vertex="1">
          <mxGeometry x="-1120" y="120" width="460" height="20" as="geometry" />
        </mxCell>
        <mxCell id="80dREfzg9zEopbjjEfy4-5" value="Blue 1 Virtual LAN 10.0.5.0/24" style="html=1;outlineConnect=0;fillColor=#CCCCCC;strokeColor=#6881B3;gradientColor=none;gradientDirection=north;strokeWidth=2;shape=mxgraph.networks.bus;gradientColor=none;gradientDirection=north;fontColor=#ffffff;perimeter=backbonePerimeter;backboneSize=20;" parent="80dREfzg9zEopbjjEfy4-1" vertex="1">
          <mxGeometry x="-861" y="251" width="200" height="20" as="geometry" />
        </mxCell>
        <mxCell id="80dREfzg9zEopbjjEfy4-6" value="192.168.3.41&lt;br&gt;480-fwX&lt;br&gt;10.0.17.2" style="image;html=1;image=img/lib/clip_art/networking/Firewall_02_128x128.png;labelBackgroundColor=none;" parent="80dREfzg9zEopbjjEfy4-1" vertex="1">
          <mxGeometry x="-920" y="27" width="40" height="40" as="geometry" />
        </mxCell>
        <mxCell id="80dREfzg9zEopbjjEfy4-7" value="" style="shadow=0;dashed=0;html=1;strokeColor=none;fillColor=#4495D1;labelPosition=center;verticalLabelPosition=bottom;verticalAlign=top;align=center;outlineConnect=0;shape=mxgraph.veeam.vm_linux;" parent="80dREfzg9zEopbjjEfy4-1" vertex="1">
          <mxGeometry x="-728.2" y="281" width="57.2" height="55.2" as="geometry" />
        </mxCell>
        <mxCell id="80dREfzg9zEopbjjEfy4-8" value="" style="pointerEvents=1;shadow=0;dashed=0;html=1;strokeColor=none;fillColor=#005F4B;labelPosition=center;verticalLabelPosition=bottom;verticalAlign=top;align=center;outlineConnect=0;shape=mxgraph.veeam2.windows_vm;" parent="80dREfzg9zEopbjjEfy4-1" vertex="1">
          <mxGeometry x="-791" y="281" width="49" height="52" as="geometry" />
        </mxCell>
        <mxCell id="80dREfzg9zEopbjjEfy4-9" value="Individual Environment&lt;br&gt;hermione.local" style="text;html=1;strokeColor=none;fillColor=none;align=center;verticalAlign=middle;whiteSpace=wrap;rounded=0;fontStyle=1" parent="80dREfzg9zEopbjjEfy4-1" vertex="1">
          <mxGeometry x="-790" y="36" width="120" height="20" as="geometry" />
        </mxCell>
        <mxCell id="80dREfzg9zEopbjjEfy4-10" value="10.0.17.200&lt;br&gt;fw-blue1&lt;br&gt;10.0.5.2" style="image;html=1;image=img/lib/clip_art/networking/Firewall_02_128x128.png;labelBackgroundColor=none;" parent="80dREfzg9zEopbjjEfy4-1" vertex="1">
          <mxGeometry x="-777" y="154" width="40" height="40" as="geometry" />
        </mxCell>
        <mxCell id="80dREfzg9zEopbjjEfy4-11" value="vcenter&lt;br&gt;10.0.17.3" style="pointerEvents=1;shadow=0;dashed=0;html=1;strokeColor=none;fillColor=#005F4B;labelPosition=center;verticalLabelPosition=bottom;verticalAlign=top;align=center;outlineConnect=0;shape=mxgraph.veeam2.vcenter_server;" parent="80dREfzg9zEopbjjEfy4-1" vertex="1">
          <mxGeometry x="-1052.4" y="149" width="40" height="50" as="geometry" />
        </mxCell>
        <mxCell id="80dREfzg9zEopbjjEfy4-12" value="dc1&lt;br&gt;10.0.17.4" style="aspect=fixed;html=1;points=[];align=center;image;fontSize=12;image=img/lib/mscae/Active_Directory.svg;labelBackgroundColor=none;" parent="80dREfzg9zEopbjjEfy4-1" vertex="1">
          <mxGeometry x="-1127" y="149" width="50" height="50" as="geometry" />
        </mxCell>
        <mxCell id="80dREfzg9zEopbjjEfy4-13" value="xubuntu-wan&lt;br&gt;10.0.17.100" style="shape=image;html=1;verticalAlign=top;verticalLabelPosition=bottom;labelBackgroundColor=none;imageAspect=0;aspect=fixed;image=https://cdn3.iconfinder.com/data/icons/humano2/128x128/places/start-here-xubuntu.png" parent="80dREfzg9zEopbjjEfy4-1" vertex="1">
          <mxGeometry x="-870" y="154" width="40" height="40" as="geometry" />
        </mxCell>
        <mxCell id="80dREfzg9zEopbjjEfy4-14" value="fogx&#xa;10.0.17.5" style="shape=image;verticalLabelPosition=bottom;labelBackgroundColor=none;verticalAlign=top;aspect=fixed;imageAspect=0;image=data:image/png,iVBORw0KGgoAAAANSUhEUgAAAQAAAAEACAYAAABccqhmAAAj9klEQVR4nOzdCZhU1Znw8f+p6pW1oRto9mZVacQIxiWCwaiTxCVfgtMNxiTjZAyTb+aZmfglKjRmpqPQDRgnk8lMYnA0xnGhKUWjJq4oCigoytI0CM2+NkuzQy/VVed76jYgQjdd1XWqTt2q9/c8hF6qzn0ldd57tntOGsLdiu7JhqxBoAah6AU6D+gBnlzQuUAuitDfGc7rNd1OvTP0fcdTX58AGp2vFIdOva4BqEVTizr1R+sDoA6ArkGzFeq34PtVnZX/bmGEsh2ACMPkyekcybuIIKNQjETpwQRVAYoCCFV6q/YCWyCUEEJ/q0qUrqTrgfXMmeO3HJtogySARBO6o3uzriDIVSjPKLS+FBhx5g7uHqEWxVqUqkQHV+NhGYH65dJiSCySAGy7o6QXAXUl6DGgrwU1FsiyHVaMNIFaBcElKPUJwcBCfLO22w4qlUkCiLfxpWn08F+N0reCuhH06JT+/0GxGXgbrV7l2NE3ee03DbZDSiWp+8GLpwn39cPrvQ2lvgl87azBN/FFx9EsQKnX0byCb8Yu2wElO0kAsXJHaR7BxpvR+vugQpXeYzsklwkCH6Lx4W3yMXf2btsBJSNJACaFKn2gcSJQDIyVSm9MEK3fB+bRxDxeLK+1HVCykARgQtGUMXg8k9F8H8i2HU6SawBeBs8c5k1f4KxYEO0mCaC9iu7NR6X/DXA3MNR2OClqI/AMHvU4c2fssB2MG0kCiNSkKZcTVD8FFWrmp9sORzj8QAWaR/CVrbQdjJtIAghX0bRQn/5+lL5F/t0S2hJQs5g341XpHrRNPsgXMr40jV4N30ern51ajSfcYw3oX7Iv8xkWljbZDiZRSQJoSWmph3X+29F6OjDcdjgiKlvRqhw2PI7PF7AdTKKRBPBFiuJptwIPgb7MdjDCqHUoZnJJxtOUlgZtB5MoJAGcVjTlG+CZhWKU7VBETK1EBe+nYuabtgNJBJIAbn9gGN7gjFAKsB2KiCf9Npp/wVe+1nYkNqVuAvh2aQ4ZjVOAnwCZtsMRVvhB/w4d/Fd8s47YDsaGVEwAiuKpd4MqA/JsByMSgd6HYgoV5U+m2tRhaiWAiQ8MIRj8PYobbIciEpBmEXh+hG/6etuhxEtqJADnGfzGf0QxQx7FFW2oA2ajM8rwlTbaDibWkj8BFE0Zg/I+LtN6IiJarcCj76ai7FPbocRS8iaA0lIPVY3/hGK2C/fTE4mhCZiBrn4oWRcRJWcCKLp/AMr7v8B1tkMRSeFDAsHv8cLMzbYDMS35NqyYOK0I5V0plV8YdA1ezwqKS75nOxDTkqcF8P2fdaQh/feg7rQdikhm6o/Upf8Dr5SetB2JCcmRAIqmDEWp+aAutR2KSAGa1Xg8E6iYvsl2KNFyfxegeOrNKM9HUvlF3ChGoYOfUjz127ZDiZbXdgBRUBSX3A/qcaCD7WBEyskENZHCcdkU3fAOCxe6cgWhO7sATn8/4zngNtuhCIHmT2Q13sn//vKE7VAi5b4EMKGkN2nqleajtIRIFGoVTf5bmT97p+1IIuGuBHD7zwtJC/wZzUDboQjRgl2owC1UzFplO5BwuWcQcFLJDXgDS6TyiwTWF+1d1Ly5jDu4YxCwqOS7wPMy2CdcIBOlihlxXTVrF1XZDqYtiZ8Aiqf+CKWeANJshyJEmLwovsOIsbtYu3iF7WAuJLETwMRp/wD81lVdFSGaeVDqNkZed4SqRUttB9OaxE0Azhw/v3LdQKUQnwt9dr9B4TioWvSe7WBakpgJoHjaQ8CDtsMQwpDxjLzOQ9WihbYDOVfiJYCikmkoSm2HIYRhX6VwXCNVixbbDuRsiZUAJpb8E/Cw7TCEiJEbKBx3nKpFH9oO5LTESQBFJXcBj0qfXyS5mygcu5uqxQmx1VhiJICiku+ieFJG+0UKUKBuZsR16xNhnYD9u+2kB8YTDL4h+/aJFOMHz83Mm/62zSDsJoCiqSNQagmQYzUOIew4ivaOxfdQpa0A7CWACSW9SedDWdsvUtxWvFzNc2V7bVzcTp/7ttIOeHlRKr8QFBBQf3b2uLAg/gmgtNRDduNcFFfF/dpCJCQ9hoaMp526EWfxTwBrG0tlJx8hzvNt1jZOi/dF4zsGMHHqrWj1J5nuEy3JSk+jd7fO5HbuQE52Fl07ZtG1QxbdOmY5v0/zeuiUmUm938/mvYdYuHYLew4fsx22SUHQtzGv/C/xumD8EsDtDwzDG/xIRvxTV8fMDAb36s7gnt0Y1DOHwT27U9CjG327daF3t07kdMyOqDytNcs27eSp91Yyb2klJxv8MYs9jg6hPF+O15bj8UkAzZt4LgVGxuV6whqvx8OAvK4Mzc9leO9chufnMrR3HsPyc+nXvUvMrrv/6El+/doH/NcbS2lscvkxfprV1GdcE4/DR+KTAIqnPi0n9iSXdK+XofndKezfkxF9e3JJ3x4Mz89jcK9uZKbb27tl/e4D/N3vX+TTLbutxWCG+gPzZvww5leJ9QVOnaf2vzG/jogJj1IU9MihsH8vp5IX9muu8MP75DpJIBGFugJ/++h8XvnkM9uhREdxBxVlc2N7iViaNK0/Qb0K6BbT6wgjQs33i/rkccWgvowe3JvRBX0Y0a8nHTLTbYcWsQZ/E7fNfprF67fZDiUah2lSX2L+jJj9R8QuATjn8zcsQKnxMbuGaLfQnT3UhA9V8tGD+zJ6UG8uG5jvDNQliwVrNnPbbJc3PjWLoPp6fL6YDGzErrO2tqFEKn9iSPN6nEG4UGW/uG8PRvTrwdVD+9OtU2Sj7m5zcZ882yFETzEOPfReYGZsio+FoiljUJ4PAfe1HWOkX/cuXDWsP50yM9h+4DCb9h1kZ+1RgtrckXKhJvzAvK4M653HRX1ynUG5UQPyGTmglzPHnmo27zvEyJ/9p+0wTPDjCV7F3JnGdxg2/6kYX5qGapwjlb9ZXueOzJh0I5O+cul5g2aNTQE27T3ojFxX19SysaaWLfsOsWX/IXYfOubMc58tdCfP6ZBNz64dnYTSO6ezM68eurtf1Nv+CHyi2VF7xHYIpqQT9P6ByZO/zJw5Rhc7mP+09Gy4D9Ro4+W60I0jh/D4jyfQo0vL55lkpHmdkfXQn9YcPVnvtBI6Z2c6d3gRvk8277IdgkH6Mg7l/cT0lnlmP1ETpw4H9YDRMl1qwpUjeP7/3dFq5Q9Xlw5Zzgo5qfyRW1i1xXYIZil+QdGUoSaLNPmpUmh+ByT3yFIYvnpJAU/8eIJzhxd2HDx+kvfWbbUdhmnZoB4zOXZnLgEUT70b1NeMledSA/NyqPjJJKn8lj3x7qf4Ay5fEtwSpcYzcepdpoozkwC+XZoDqsxIWS7367tuoUt2pu0wUtrhE3X85+sJexpX9DQzKbq/q4mizCSAjIZ/A5Jg0jU6Vwzpy1+NMtpFExHSWvPjx1/mwLETtkOJIdUTj9fI3gHRJ4Dbp14M6h9NBON2k64ZZTuElPevvgW8vNzlzwCEQ/MvzYPu0Yk+AXjUv8ucf7O+3TvbDiFlBYJB7n3mdR55dYntUOIlA62inhKMLgEUP3Ajim9GG0SyOFbfYDuElLTv6Am+Nftp/vuNZbZDibdvUVzy9WgKiGYhkAL9y2gunmw+WL+D7439ku0wrDp0vI6aw8fZffgYNUeOse/wCQ6drOPg8ToOnajjyIm6M69t8Ac56ffTvWMWeV060qtrR/p3z6FPt8706d6Z/rk5zs9aWwOx7cBhnluymt+9tczZECRFlQFvOp2Cdmh/AiguKXJWJ4kzFq9PunnnLzhW1+AsXd5Yc5Ct+w85FXzP4ePUHDrOnsNHnYpf728yft2uoQTRqYOzKCqkvtHP1v2HqWtMii3AojWaomnfxjfjxfa8uX0LCoqKvKhhlcAl7Xp/Eqv+j3voG8Otr2ItVIE3n6rkG/fWNv9dU+s8q7D3yHHb4YmWaF1FYeYoSkuDkb61nS2Aod+Vyt+ylz5exz9+PfGPPDh4/CRrd+1n/e79rHP+bn4gyfQTiiIOlCqkyl8EVET81ogv1nz3rwIuivi9KeCaYQNY8PO/tR3GGYFgkOqag6zauoeV2/awatse1uzYn+Tz5ClpA/syCllYGlEfLPIWgGfoD9BS+VuzbOMO51HePt3sTAmGKvbS6p0sWb+NjzbuYvX2Gk40NFqJRcTVcHo2TgKejuRNkSYAhVY/i/A9KSXUfH537WbuvDY+46NHT9Y7W1+9VbmJDzZsY8Oe2rhcVyQifR/wTCQzApF1AYpKbkHxantCSyV3fXU0v/272J1+tqP2CM8vreKNVRv4sHpncj70ItpHBb9Oxcw3w315ZC0AxU/bE1OqicV0YIO/iWeXrOLZxZV8UL39vN2ChHAEvT89tS4gLOG3ACbefxnauyLu5wm61IHHSoxtp71u135u//dnnblvIdqkuRxf2cpwXhrBUmDvfVL5w1djcM78vmdel8ovwqe4J9yXhpcAiu7NR1MUTUypxusxkyura2p5J9m2thKxNonvlPYM54XhJQCV/rfyxF9kukV40m1rnnp/hfT3RaQySGv8m3BeGE4CCN3KYn5IYTLp1bWTsV2BXvxorZFyRIpR3B1Ol73tBDCp5GuAbHMTgaG9co2Us7HmoHO4hRDtMJziaePaelHbCUDrH5mKKFUM620mAbxVudFIOSJVtV13L5wAvjM1F62+bTKkVDCkV3cj5UgCEFH6a7475YInc184AaR57gBki9sIDc2PPgE0+JtY/Jmrj7YW9mXh915w9u7CCUBpmfprh2H50XcBFq/fzvF6eYhHREsXX+i3rSeACSW9gWtjEVIy8yjFoJ4XbHWF5W1p/gsTFOO5o6RXa79uPQF4KXb+V0Skb/cuZGdEv2Ri4drk3l5MxI2XoLq9tV9eqAtwwaaDaNkwA/3/Ew2NVO3cayQeIdCtdwNaTgAT7uuH4upYxpSshuZHf0DS8s27aQpEvL2bEK0Zx6T7+rT0i5YTQHr6t4wfHZ4ihhoYAFxWvcNILEKc4iGQfmvLv2iJ1t+IdUTJaqiBNQAfbdppJBYhzlAt1+nzE0BRaQZwfTxiSkbRtgC01s5efkIYduOpuv0F5ycA1XQd0CleUSWTNK+HgT2iO7V5875DsmOviIXOeJu+cu4PW0gAATnrr50G9ehGuje6mdNlG6X/L2IkqM+r2+cnAK2k/99OQwxMAS6T5r+ImWAbCaB5xdCIeIaUTEwsAZYWgIgdNfLcnYK+mAACamy8Q0om0SYAfyDAZ7v2G4tHiHMoMvzXnP2Dc7oAWtb+R2FY7+gWAW3YXUtjk+zxL2Lpi3X83DEASQBRGB7lRiBrdsjyXxFjQVpJAEX3ZANfshFTMuiUlUF+1+hmT9fu2mcsHiFapBjDXaVZp7/9PAGoDl92dhMV7RJq/isV3VbgVTslAYiYy+Rkw5jT35zVBQheaSmgpBBt8z+kaockABEH2nPV6S/PSgAqPsfZJqlodwI+VtfA9tojxuIRolWKUae//DwB6M9/KCIXbQsg1P+XA0BEfOhLT3/VnAAmT05HcbHNkNwu6gQg/X8RP4WML3VOBm9OAId6XSwDgO2nlGJIlF0AGQAUcZRJj4bhnEkAnqA0/6PQp1tnZxowGjIAKOLL43QDmhOA1oW2w3Gz4QaeAfhs9wEjsQgRFsVIziQApQfbjsfNol0CXNfoZ99R2QNAxNGpOn+qBaAG2Y7HzYZHmQC2HzgiMwAivoIU8Pk0oC6wHI6rRTsDsEPm/0W8KZybvofv/6wjqB6243GzaE8D3n7gsLFYhAhTPneVZnk4mV3g5APRLlnpafTr3iWqMnYclBaAiDvFiaaBHrxNA21H4mZD8rvj9UR3hMKOA0eNxSNE+JoGeVCqxRNDRHhMbANWc1gSgLDAo3p7COroz7JKYSZOAtpz+LiRWISISFDlpaGI/hOcwgYbOAp835HkXgPgUYqh+d35UkFv8nM60b1jB3I7Z6NQHK1r4PDJelZvr+GTzbvYf/Sk7XBThyI3DTy5IHPQ7TU4ymcA/IEAB0/UGYsnEaR5PVw5pB83XTqUr1zUn8sG9qZLdmab72sKBHljVTUPzl9I5faauMSa4kIJQEsLIApDomwBhO7+ybAIqG/3Lk6Fv+nSIXytcDBdO2ZFXEYocdwy+iJuvHQI9zz1Gk++92lMYhVn5KahyZNJwPbJzkh3HgSKxr4j7uz/p3u9XHtRf266dBh/NWoohf17Gis7Mz2N//rhrRw6Uceflq8zVq44h8YZA8ixHYdbDerZLep9AI/UNRqLJ9ZyOmbztcJB3Hz5cG750kXtusuHy6MU//6Db/JW5UZONvhjdp2UpugWSgBZMgTQPiYGAI/XNxiJJVaG9OruVPibL7+Ia4cPcJrp8dI7pzN3jv0Sjy34OG7XTCmKzFAXQDYCaadQ5YjWsQRLABlpXq4Z1p+bRg11Kv3FfezOEv9g3GWSAGJFhxIAOkNWArePiQRwvM5uAgg1tS/qk8fYiwucAbzxIwZFvbmJSWMG92VgXg7b5HmJGFAZaaDanp8RLYp2ChCnBRDfMYBQs3rM4D6MGdSXK4f1Y8ygPmFN0dn0zcuH8ehb0gowT4daANIFaK8hvaIfAzjZGLsBrtxOHRg9uA9XDO7D6II+ztehBOA2/bvLOHWMSAJor1BfOdqnAHHGYcx0v7p0yGJ0QT6jB/Vl9KA+zl0+1HR2O6018z9eazuMZOUkANEOBT1yon4KEGc+PfIystLTuNy5o/d2mvKhCj8sv3vUU5KJqPyl950lwiI2Qgkg1AnNth2I2ww2MADIqQU1bRmQ15Wrh/XnyiGhP325rCA/rPe53Z8/XU/ZS+/ZDiOZNUgCaCcTMwCcWv56rqH53bm+cAjXjxjkVPz8nOhOHXajBWs284PfvkAwCZZJJ7BQAtANMg0YuSE9zTxCEbqT53bqwPUjBzlr6K8vHJwUffdohCp/8X/MdXZLFrGkQglAuWctagIxMQMQ8r1xlzH5xiuc+XgByzbuYNKvK6Tyx4VuTEPRKEuBI2dqDCCRFt3YVvFBJf/y1F840SD3pLhQoS6Apt52HG7j9XicgTkRvVAff0HlJn7zxlLertxkO5zUopsHAQ/ZjsNt+nbvnBKj8LFyssHPBxu2807VJl75ZD2b9h60HVKqOhhqARyQMcDIFKT4IF2k/IEAK7ft4d01W3i3ajNLN+6kwd9kOyyhOZCGotZ2HG4zqKeZ/n8yOlbXwMaaWtbt3s+KrXtYsWWP87cM6iUgpWrTQB2QPQEjM7CHtABCfffNew85e/dV7drnHG8e+nrL/sNJscVZatAH0iBYK+sAIlPQw8wUoFsEgkE27Kll3a79zp8VW3eztHonB4/LDr4uV5uGplbqf2QKeiZvC6ApEKS6ptap5Keb8Ku21cjUXDLSoQSg2GM7DrcZlCQtgJYqu/TXU0mwJtQC2CotgPBlZ6TTs0tH22FE7HQz/uzKvnLbHtlwM6WlbUmD+i2QreWE4PAMzOvqisdud9Qe4eNNu/ho0w6Wb9otzXhxLk3HtG1p+H5VR/HU/aDMbeyexAoM7ARs2vH6Rip31LBiS+jPbhav3yZ76Im27OHJ0vrmDUG02oJCEkAYChJgCnDvkeO8t3Yr763b6jw8s373AaeJL0TYQl3/UxuCgEdvRaurbMfkBgV58V8EdKyugY837+bdqk28U7WFlVv3yFy7iI7SWziTALRnkywGCk88WgCNTQHe/2wrb66q5r1126jasVc2xhCGqc2cSQCwxm4w7hGrBFDvb3K2wPrTJ+t4c9VG59hsIWJGqUrOJAClK6UBEB7TCWDNjr38/u3lPP/RGo6ckCezRZw0Bc9KAHszPqNnY+iWk9gnRFjWrVO2s/22CfuOnmDKM28wb+kaad6LeKvHs7E69EXzjpQLS5sAOYe5DaaeAdBac8usp5j7YaVUfmGBqsLnC3AmATRbbS8gdxhoaBegD6q3O0/PCWHJmbp+VgLQlZaCcY3+uWYSwAvLqoyUI0S76M8H/T9PAB6W2YrHLQbmmekCvL9um5FyhGgXL0tPf/l5Ajhy/CNA5p4uwMRGoMfqGpyVe0JY0kBW+qenv/k8Abz2m1DlX2ErKjfonxv9YaCrd9TIsl1h08c8WXpmvvncc6mWxD8e9zBxYk/1HtmCUVj1hTr+xQSglSSAVnTOziSnY/RHKG7eJ7uwC5vUBRJAU7okgFaYmgHYWCMtAGGNRgeXnv2DLyaAF0v3obXMUbXA1IGdm/ZKC0DYolbjK99/9k/OP5ta8Vo8Q3ILEzMAWmu27pcEICxpoW6fnwA86vV4xeMmJroA+4+ddKYBhbAiGDyvbp+fAAIZi4Bj8YrJLUx0AWqPyT76wpqjdKv94Nwfnp8AfKWNwLvxisotBvQwsAioXu7+whLN28yZc94W0OcnAOfFWroB5xiQG30LQDb5ENaolut0ywkAz8uhHkOMQ3KNzPQ0I2cBHDspCUBYEaRJvdrSL1pOAL4Zu4Dz+gupqn9uFyNnARyVLoCw4z3ml7V4AlgrLQBnymBeLCNykwGGFgEdq5ODOYQNqtW63HoCCPp9QCBWIbnJAEOPAcsUoLAggD99fmu/bD0B+B6uQetFsYrKTUwtA67zyzl8Iu7ecVb4tqL1BNBMugGGpgBDGvxNRsoRImxaV1zo1xdOAE1OAkj5vapNjQE0+KVHJeKqjnTdavOfNhPAi+W1wEumo3Kbft3NJIDGJkkAIq58PDvzgg+ftNUFAO15zGREbtSraycj5UgXQMSVR/9Pmy9psxDf9HdRVJuKyW26ZGfSITPdSFkNTZIARNxsYG754rZe1HYCAE1QP2EmJvfJzzFz98dJANIFEPGiHyOME3/DSQCQpv4ApOQcVq+unY2VJZuBijhpxJ/5VDgvDC8BPFe2F7jgdEKy6pUT/TMAp3k94f1zCxEVxbMXmvs/W/ifSC8Ph9OkSDbdOnYwVpbXE/3zBEK0LfAf4b4y/ATwXNlq0AvaG5Jb5XQwd2BymrQARMyp16mYtSrcV0f2idT6kfaE5GZdss0cBx6S5pUEIGLMo38Z0csjKtw383VQYWeXZJDT0VwLwKskAYgY0qxmbtk7kbylHZ/I4K8if497dc2O/jCQ06QFIGJsVqTjdJF/IvXGp4H1Eb/PpTplZRgrK83rNVaWEOfYANURz9RFngB8vgBKPRTx+1wqK8PMKkCnrHRJACJGlHrAqZsRal+b9JL055z+RgrIzjBXabMNJhMhzrKGS9JfaM8b25cASkuDoFOiFZCdbrAFkJFmrCwhzgjd/Z06Gbn2j0r5ykMZZ2W73+8SmenmKm1WmiQAYZr6hIoZL7f33dEMS2s8/CyK97uCybu2dAGEcVpPjWaFbnTzUnPLFgCvRFVGgjO5ei9TBgGFSZr5+MreiqaI6D/dynMPkLTb3XoMrt+XZwGEQY0EPVOiLST6BFAxfRPo30RdToJSGEwAshBImPMIL0yPeqMeM5/I+sCDoGqMlJVgDBwIdIY8DCQM2Ut6xkwTBZn5RL48+xgqWGKkrARj4kiw09I8MgYgDND6Xp4pPWqiKHO3pIryJ0G/bay8BKG1uS0Q0qULIKL3Lr7yp00VZvITqdHeycAJg2Vad6LB3E5o8jCQiNJJlOdHJjfmMfuJ9E3fAiTVCsE9h420tIQw4V+bB93NMX9L2pfxiLM6KUl8vHGXsbICwZTbUU2Ys5J9Gb82Xaj5BLCwtAmlJyfLLsK+ZVXGygoaHE8QKaURFbjLqVuGxaZTWlH2KejSmJQdZyu27OaVTz4zUtbB4yeNlCNSjf55JPv8RSJ2o1IjMmc6I5ZJ4B8ef4XN+y54xFpYNuw5YCQekVLeR2+M2V6csUsApaVBmpp+ELrxxewacVJ7/CQTfz2XY3XRrXjeuNf1/xQivg6jA99vz0Yf4YrtvNT82TvR+u9jeo04qdqxj1tnPc3+o+1rxjf4m1i+abfxuEQS0+rH+GZtj+UlYj8x7St/HtQfY36dOPh4806uf/B/qNwe+arnP76/ggPHkmqJhIgp9Ri+GTE/jSs+a1O/fMPr+AM3A73jcr0YOnSinj++t5KmYIArh/QjPYyNPkMJ44ePviiHg4pwrUTXFbF2acyPk47f86kTpg0kTX8C5MbtmjGW17kjk2+8gh+Mu5wBeV3P+73WmueXVfHPf/wzR07UW4lRuM5BtOeKU4vqYi6+D6gXldyE4rW4tTziRCnF1UP7c/XwfnTOyqTe38T2/Yf5oHo72w8csR2ecI8gOnhL8wE88RH/HSqKS/4NSIo1AkIYVsK8svJ4XjD+T6eMyHgIzZ/ifl0hEtsLzCsz8ox/JOKfAJzti+vuAJbG/dpCJCLNcjIb/8bG8fv2NqkrmtoDpT4EhliLQQj7tuDlGp4r22vj4vYeUPeV70d5bgOiX2MrhDsdJKBvtlX5sZoAcDYUXYfW30nmXYWFaIUfD8W8UG7mSbN2sj8dt3bxNkZcV43iO9YTkhDxEUDrO5hX/mfbgdhPACFrF1VROHYbqG9ZHZcQIvY0ir9nnrl9/aKRGAkgpGrxKgrH1QI32w5FiBj6KfPKfms7iNMSJwGEVC36mMJxR4Gv2w5FCOO0noqv/Je2wzhbYiUAnCSwlJHXeYCv2g5FCIN+ga98uu0gzpV4CQAnCSykcFw9cKPtUISImtb/hq/8F7bDaEliJgCcJLCEwuv2nhoTkIFB4UYazT34ymfbDqQ1iZsAcJLAckZetwn4lkwRCpcJoPTdzCt/1HYgF5LYCQAnCVQy4roNKCcJJH68QkADWn+XeeXP2g6kLe5pWhdPvRbUS0Ce7VCEuIBDeDwTmDt9oe1AwuGeBBBSNGUoHs9f0AyzHYoQLdjirO23vLw3Eu7qV/tmbsST8RVgie1QhDjHR85TfS6q/LiyT71m4UkG3zCX9MAI4BLb4QjhbOah6/4PFQ8fth1IpNyXAEI2LPRTtWgehePqgOtd15IRyUIDsxmR8WN+O9OVZ2G6awygJcUl14OeC6qn7VBESqkF7mRe2Ru2A4mG+xNAyKRp/QnqF4Av2w5FpACtVoC6PV5bd8eSO7sA51qz6CgjrngaldEHuNx2OCKZqcfomP7XPPtgUpz0mhwtgLMVT7sd9Bygu+1QRFI5Aur/Mm/Gc7YDMSn5EgCnugSB4FMoNd52KCIpvOucdD1/9k7bgZiWnAmgmaKo5J9RzAYybAcjXKkJmMGIjAebt7NPPsmcAJpNmnI5Qc//AKNthyJcRLMcT+BuKmatsh1KLCXHIOCFrFlcQ48bnqBD4CCKsdIaEG2oA34O1T9k3pw9toOJteRvAZzt9imD8XoeBW6yHYpISO+h9GQqyjfYDiReUisBNFNMnHoXWpUDvWwHIxKBqkHp+6koe8p2JPGW/F2AllQtXsnoq35HwOsHrgbSbIckrPCD/m/SMybw3EMf2Q7GhlRsAXxR0ZShKE9Z6CvboYg40upVPOonVEzfZDsUmyQBnFb8wI0QnCWzBUlOsxw89+Ob/o7tUBKBJIBzhRKB1rNRWpYUJxOtq/B4fkHFjOdtHMOdqCQBtExRPO1WtJ6OYpTtYERU1qGYSbD6GXy+gO1gEo0kgAspKvKiht2B5l5JBK6zEs3DFGbMTdZVfCZIAghX0bSxwP0ofYv8uyW0JaBmMW/Gq9LUb5t8kCN1R8koAvwUmCSrChNGI6jn0J5H8D1UaTsYN5EE0F7fndINv7cIpf8JGGk7nBS1AXgCf8YfeLF0n+1g3EgSgAlFU8bg8UxGcyfQ0XY4Sa4BeBk8c5g3fYE086MjCcCk060CdDGK8Sm70tK8AOh3UaqChozneanUdbvvJipJALHynam5ZKhbCKpQN+Ebstw4YkHgQzQ+8Ffge7jGdkDJSBJAPEy6rw+B9FtPJYIbgc62Q0pQR9G8jdKv06ReZX5Z0j+Oa5skgHibPDmdw3ljQX0Drb8h6wvUKtCv4/G8Tpd9S5gzx5X767uVJADb7iztgr/pSgiOBX0tqLFAlu2wYqSpucIHl6A8iwkGF+Ir3287qFQmCSDR3FWaxQn/FcCVza0DfSlQCGTaDi1C9cBaFKsJqkpUcBnHji/ntd802A5MfE4SgBuML02jV9MwgnoUipEoPZggBSgGAb0tR7cHzRaU3gJqM7AG5alkb1o1C0ubLMcm2iAJwO1CLYZjDQWkqUGg89HkgspDqTy0znW+V3RD0cF5vabLqenJdKDTqVKON2+OQQDF0VOvO4nmEIpalKoF9qODtWh1AII1BNVWOmdu5cnSeov/9SJK/z8AAP//tbKJ0bIIFdYAAAAASUVORK5CYII=;" parent="80dREfzg9zEopbjjEfy4-1" vertex="1">
          <mxGeometry x="-1090" y="234" width="51" height="51" as="geometry" />
        </mxCell>
      </root>
    </mxGraphModel>
  </diagram>
</mxfile>
